<svg width="38" height="37" viewBox="0 0 38 37" fill="none" xmlns="http://www.w3.org/2000/svg">
<path d="M32.8351 6.89522V29.8806H4.69082V6.89522H32.8351ZM32.8351 4.59668H4.69082C4.06879 4.59668 3.47224 4.83885 3.0324 5.26991C2.59256 5.70097 2.34546 6.28561 2.34546 6.89522V29.8806C2.34546 30.4902 2.59256 31.0749 3.0324 31.5059C3.47224 31.937 4.06879 32.1792 4.69082 32.1792H32.8351C33.4571 32.1792 34.0537 31.937 34.4935 31.5059C34.9334 31.0749 35.1805 30.4902 35.1805 29.8806V6.89522C35.1805 6.28561 34.9334 5.70097 34.4935 5.26991C34.0537 4.83885 33.4571 4.59668 32.8351 4.59668Z" fill="white"/>
<path d="M7.03613 11.4932H15.2449V13.7917H7.03613V11.4932Z" fill="white"/>
<path d="M7.03613 16.0898H11.7268V18.3884H7.03613V16.0898Z" fill="white"/>
<path d="M26.9716 20.6865H19.9355C19.0025 20.6865 18.1076 21.0498 17.4479 21.6964C16.7881 22.343 16.4175 23.2199 16.4175 24.1343V26.4329H18.7628V24.1343C18.7628 23.8295 18.8864 23.5372 19.1063 23.3217C19.3262 23.1061 19.6245 22.9851 19.9355 22.9851H26.9716C27.2826 22.9851 27.5809 23.1061 27.8008 23.3217C28.0207 23.5372 28.1443 23.8295 28.1443 24.1343V26.4329H30.4896V24.1343C30.4896 23.2199 30.119 22.343 29.4592 21.6964C28.7995 21.0498 27.9046 20.6865 26.9716 20.6865Z" fill="white"/>
<path d="M23.4537 19.5379C24.3814 19.5379 25.2883 19.2683 26.0597 18.7632C26.8311 18.258 27.4323 17.5401 27.7873 16.7001C28.1423 15.8601 28.2352 14.9357 28.0542 14.044C27.8732 13.1522 27.4265 12.3331 26.7705 11.6902C26.1145 11.0473 25.2787 10.6095 24.3688 10.4321C23.4589 10.2547 22.5157 10.3457 21.6586 10.6937C20.8015 11.0416 20.0689 11.6308 19.5535 12.3868C19.038 13.1428 18.7629 14.0316 18.7629 14.9408C18.7629 16.1601 19.2571 17.3293 20.1368 18.1915C21.0165 19.0536 22.2096 19.5379 23.4537 19.5379ZM23.4537 12.6423C23.9175 12.6423 24.371 12.7771 24.7567 13.0297C25.1424 13.2822 25.443 13.6412 25.6205 14.0612C25.798 14.4812 25.8444 14.9434 25.7539 15.3893C25.6634 15.8351 25.4401 16.2447 25.1121 16.5661C24.7841 16.8876 24.3662 17.1065 23.9112 17.1952C23.4563 17.2839 22.9847 17.2384 22.5561 17.0644C22.1276 16.8904 21.7613 16.5958 21.5036 16.2178C21.2458 15.8398 21.1083 15.3954 21.1083 14.9408C21.1083 14.3312 21.3554 13.7466 21.7952 13.3155C22.2351 12.8845 22.8316 12.6423 23.4537 12.6423Z" fill="white"/>
</svg>
